<svg width="1123" height="250" viewBox="0 0 1123 250" fill="none" xmlns="http://www.w3.org/2000/svg">
<path d="M177.788 107.003H100.22C99.2584 107.003 98.3363 107.386 97.6566 108.067C96.9768 108.749 96.5949 109.672 96.5949 110.635V148.614C96.5949 150.62 98.2191 152.248 100.22 152.248H130.48V199.438C130.48 199.438 123.685 201.756 104.9 201.756C82.7385 201.756 51.7813 193.648 51.7813 125.471C51.7813 57.2782 84.0187 48.3061 114.282 48.3061C140.48 48.3061 151.767 52.9259 158.948 55.1511C161.204 55.8402 163.292 53.5919 163.292 51.5881L171.945 14.8912C171.945 13.9519 171.628 12.8219 170.561 12.0558C167.645 9.97113 149.852 0 104.9 0C53.119 0 0 22.0655 0 128.129C0 234.194 60.8151 250 112.064 250C154.496 250 180.237 231.84 180.237 231.84C181.298 231.255 181.413 229.769 181.413 229.09V110.635C181.413 110.158 181.32 109.686 181.138 109.245C180.956 108.805 180.689 108.404 180.352 108.067C180.015 107.73 179.616 107.462 179.176 107.279C178.736 107.097 178.264 107.003 177.788 107.003ZM577.542 12.7084C577.546 12.2315 577.456 11.7585 577.277 11.3166C577.099 10.8746 576.834 10.4724 576.5 10.133C576.165 9.7937 575.767 9.52393 575.328 9.33923C574.889 9.15453 574.418 9.05854 573.942 9.05679H530.266C529.789 9.0588 529.317 9.15486 528.878 9.33946C528.438 9.52406 528.039 9.7936 527.703 10.1327C527.367 10.4718 527.102 10.8737 526.921 11.3157C526.74 11.7576 526.648 12.2309 526.65 12.7084L526.66 97.2397H458.583V12.7084C458.583 10.6872 456.976 9.05679 454.977 9.05679H411.303C410.342 9.06289 409.422 9.45086 408.746 10.1355C408.07 10.8201 407.693 11.7455 407.698 12.7084V241.59C407.698 243.607 409.318 245.251 411.303 245.251H454.977C456.976 245.251 458.583 243.607 458.583 241.59V143.688H526.66L526.543 241.59C526.543 243.607 528.159 245.251 530.162 245.251H573.938C575.937 245.251 577.536 243.607 577.54 241.59L577.542 12.7084ZM260.206 42.743C260.206 26.9952 247.597 14.2676 232.041 14.2676C216.501 14.2676 203.882 26.9952 203.882 42.743C203.882 58.4774 216.501 71.2397 232.041 71.2397C247.597 71.2397 260.206 58.4774 260.206 42.743ZM257.082 193.309V87.6554C257.082 85.6516 255.468 84.0116 253.469 84.0116H209.933C207.934 84.0116 206.147 86.0712 206.147 88.0789V239.448C206.147 243.894 208.915 245.218 212.497 245.218H251.723C256.027 245.218 257.082 243.101 257.082 239.376V193.309ZM743.528 84.3542H700.189C698.199 84.3542 696.583 85.9942 696.583 88.0154V200.241C696.583 200.241 685.569 208.31 669.943 208.31C654.316 208.31 650.168 201.207 650.168 185.885V88.0135C650.168 85.9923 648.554 84.3523 646.564 84.3523H602.577C600.593 84.3523 598.965 85.9923 598.965 88.0135V193.292C598.965 238.808 624.297 249.946 659.142 249.946C687.734 249.946 710.783 234.127 710.783 234.127C710.783 234.127 711.879 242.464 712.379 243.451C712.873 244.437 714.166 245.434 715.565 245.434L743.549 245.311C745.533 245.311 747.159 243.667 747.159 241.655L747.144 88.0135C747.144 85.9923 745.525 84.3542 743.528 84.3542ZM844.892 208.171C829.857 207.711 819.66 200.882 819.66 200.882V128.398C819.66 128.398 829.719 122.223 842.062 121.12C857.67 119.721 872.708 124.441 872.708 161.729C872.708 201.045 865.923 208.807 844.892 208.171ZM861.985 79.2127C837.369 79.2127 820.627 90.2137 820.627 90.2137V12.7084C820.627 10.6872 819.013 9.05679 817.023 9.05679H773.223C772.746 9.05931 772.275 9.15576 771.836 9.34063C771.397 9.52551 770.999 9.79519 770.664 10.1343C770.329 10.4734 770.063 10.8752 769.884 11.3169C769.704 11.7585 769.612 12.2314 769.615 12.7084V241.59C769.615 243.611 771.231 245.253 773.228 245.253H803.617C804.985 245.253 806.021 244.545 806.788 243.307C807.544 242.077 808.633 232.757 808.633 232.757C808.633 232.757 826.542 249.752 860.445 249.752C900.252 249.752 923.077 229.532 923.077 158.982C923.077 88.4331 886.619 79.2127 861.985 79.2127ZM382.609 83.9904H349.846L349.796 40.6429C349.796 39.0029 348.955 38.1829 347.057 38.1829H302.413C300.679 38.1829 299.745 38.949 299.745 40.6198V85.4129C299.745 85.4129 277.372 90.82 275.861 91.2589C275.106 91.4776 274.443 91.936 273.971 92.5651C273.498 93.1942 273.243 93.9599 273.243 94.7469V122.895C273.243 124.916 274.858 126.552 276.855 126.552H299.747V194.268C299.747 244.562 334.973 249.503 358.744 249.503C369.607 249.503 382.601 246.01 384.746 245.217C386.043 244.739 386.799 243.396 386.799 241.936L386.835 210.972C386.835 208.951 385.13 207.315 383.214 207.315C381.303 207.315 376.419 208.094 371.391 208.094C355.299 208.094 349.844 200.603 349.844 190.905V126.551H382.609C383.086 126.548 383.558 126.452 383.998 126.267C384.438 126.082 384.837 125.812 385.173 125.472C385.509 125.132 385.774 124.73 385.955 124.287C386.135 123.845 386.227 123.371 386.224 122.893V87.6381C386.224 85.6169 384.606 83.9904 382.609 83.9904Z" fill="white"/>
<path d="M1087.22 35.7073C1067.47 35.7073 1051.42 51.7104 1051.42 71.4244C1051.42 84.6028 1058.65 95.9987 1069.31 102.193V107.141C1069.31 107.141 1069.31 142.859 1033.51 142.859C1018.67 142.859 1007.04 146.034 997.708 150.894V66.4862C1008.38 60.2914 1015.6 48.8955 1015.6 35.7171C1015.6 16.003 999.563 0 979.802 0C960.041 0 944 16.003 944 35.7171C944 48.8955 951.225 60.2914 961.896 66.4862V183.524C951.225 189.718 944 201.105 944 214.283C944 233.987 960.041 250 979.802 250C999.563 250 1015.6 233.987 1015.6 214.283C1015.6 204.932 1011.91 196.497 1006.03 190.108C1011.24 183.728 1019.7 178.566 1033.51 178.566C1104.55 178.566 1105.1 107.141 1105.1 107.141V102.193C1115.77 95.9987 1123 84.6028 1123 71.4244C1123 51.7104 1106.95 35.7073 1087.2 35.7073H1087.22ZM979.821 17.8537C989.721 17.8537 997.718 25.8308 997.718 35.7073C997.718 45.5838 989.721 53.561 979.821 53.561C969.922 53.561 961.925 45.5838 961.925 35.7073C961.925 25.8308 969.922 17.8537 979.821 17.8537ZM979.821 232.137C969.922 232.137 961.925 224.15 961.925 214.283C961.925 204.426 969.922 196.429 979.821 196.429C989.721 196.429 997.718 204.436 997.718 214.283C997.718 224.15 989.721 232.137 979.821 232.137ZM1087.22 89.2781C1077.33 89.2781 1069.32 81.3009 1069.32 71.4244C1069.32 61.5479 1077.33 53.5707 1087.22 53.5707C1097.11 53.5707 1105.11 61.5479 1105.11 71.4244C1105.11 81.3009 1097.11 89.2781 1087.22 89.2781Z" fill="white"/>
</svg>
