<svg width="18" height="18" viewBox="0 0 18 18" fill="none" xmlns="http://www.w3.org/2000/svg">
<path fill-rule="evenodd" clip-rule="evenodd" d="M8.99944 0.1875C4.02976 0.1875 1.52588e-05 4.23265 1.52588e-05 9.22373C1.52588e-05 13.2152 2.57851 16.6019 6.15545 17.7969C6.60545 17.8799 6.7697 17.6009 6.7697 17.3615C6.7697 17.1469 6.76182 16.5788 6.75732 15.8249C4.25363 16.371 3.72546 14.6135 3.72546 14.6135C3.31652 13.5699 2.72646 13.2921 2.72646 13.2921C1.90914 12.7313 2.78832 12.7426 2.78832 12.7426C3.69113 12.8064 4.16644 13.6738 4.16644 13.6738C4.96969 15.0546 6.27302 14.6559 6.78602 14.4243C6.86758 13.8404 7.10045 13.4423 7.35751 13.2164C5.35895 12.9882 3.25801 12.2134 3.25801 8.75107C3.25801 7.76449 3.60846 6.95804 4.18446 6.32611C4.09164 6.0974 3.78283 5.17915 4.27221 3.93505C4.27221 3.93505 5.0282 3.69221 6.7472 4.8612C7.46551 4.66072 8.23503 4.56076 9.00059 4.55681C9.76503 4.56076 10.5351 4.66072 11.254 4.8612C12.9718 3.69221 13.7262 3.93505 13.7262 3.93505C14.2172 5.17915 13.9084 6.0974 13.8156 6.32611C14.3927 6.95804 14.7409 7.76449 14.7409 8.75107C14.7409 12.2219 12.6366 12.986 10.6318 13.2096C10.9547 13.4886 11.2427 14.0398 11.2427 14.8829C11.2427 16.0909 11.2315 17.065 11.2315 17.3615C11.2315 17.6032 11.3935 17.8844 11.8502 17.7958C15.4238 16.5985 18 13.2141 18 9.22373C18 4.23265 13.9703 0.1875 8.99944 0.1875Z" fill="white"/>
</svg>
