<svg width="30" height="30" viewBox="0 0 30 30" fill="none" xmlns="http://www.w3.org/2000/svg">
<g clip-path="url(#clip0_1_20)">
<path fill-rule="evenodd" clip-rule="evenodd" d="M12.3529 22.9412C6.51353 22.9412 1.7647 18.1924 1.7647 12.3529C1.7647 6.51353 6.51353 1.7647 12.3529 1.7647C18.1924 1.7647 22.9412 6.51353 22.9412 12.3529C22.9412 18.1924 18.1924 22.9412 12.3529 22.9412ZM21.6776 20.43C23.5588 18.2629 24.7059 15.4412 24.7059 12.3529C24.7059 5.54294 19.1629 0 12.3529 0C5.54294 0 0 5.54294 0 12.3529C0 19.1629 5.54294 24.7059 12.3529 24.7059C15.4412 24.7059 18.2629 23.5588 20.43 21.6776L28.4929 29.7424L29.7424 28.4929L21.6776 20.43Z" fill="white" stroke="white" stroke-width="0.416667"/>
</g>
<defs>
<clipPath id="clip0_1_20">
<rect width="30" height="30" fill="white"/>
</clipPath>
</defs>
</svg>
